<svg xmlns="http://www.w3.org/2000/svg" width="480" height="220" viewBox="0 0 480 220" role="img" aria-labelledby="title desc">
  <title id="title">Language Distribution</title>
  <desc id="desc">Language distribution across bugstan personal repositories and n2ns public organization repositories, excluding HTML and CSS.</desc>
  <style>
    svg { background: transparent; font-family: -apple-system, BlinkMacSystemFont, "Segoe UI", Helvetica, Arial, sans-serif; }
    .panel { fill: transparent; }
    .heading { fill: #fe428e; font-size: 24px; font-weight: 700; }
    .subtitle { fill: #777; font-size: 13px; }
    .language { fill: #777; font-size: 14px; font-weight: 600; }
    .percent { fill: #666; font-size: 13px; text-anchor: end; }
  </style>
  <rect x="0" y="0" width="480" height="220" class="panel" />
  <text x="20" y="34" class="heading">Most used languages</text>
  <text x="20" y="54" class="subtitle">38 source repositories · bugstan personal + n2ns public</text>
  <svg x="20" y="68" width="440" height="10" viewBox="0 0 440 10">
    <clipPath id="bar-clip"><rect x="0" y="0" width="440" height="10" rx="5" /></clipPath>
    <g clip-path="url(#bar-clip)">
      <rect x="0.00" y="0" width="157.55" height="10" fill="#4F5D95" />
<rect x="157.55" y="0" width="83.01" height="10" fill="#3178c6" />
<rect x="240.55" y="0" width="62.08" height="10" fill="#A97BFF" />
<rect x="302.63" y="0" width="36.64" height="10" fill="#00ADD8" />
<rect x="339.28" y="0" width="35.04" height="10" fill="#dea584" />
<rect x="374.31" y="0" width="24.69" height="10" fill="#b07219" />
<rect x="399.00" y="0" width="21.74" height="10" fill="#3572A5" />
<rect x="420.75" y="0" width="19.25" height="10" fill="#f34b7d" />
    </g>
  </svg>

        <circle cx="28" cy="104" r="5" fill="#4F5D95" />
        <text x="41" y="108" class="language">PHP</text>
        <text x="216" y="108" class="percent">35.81%</text>

        <circle cx="260" cy="104" r="5" fill="#3178c6" />
        <text x="273" y="108" class="language">TypeScript</text>
        <text x="448" y="108" class="percent">18.87%</text>

        <circle cx="28" cy="130" r="5" fill="#A97BFF" />
        <text x="41" y="134" class="language">Kotlin</text>
        <text x="216" y="134" class="percent">14.11%</text>

        <circle cx="260" cy="130" r="5" fill="#00ADD8" />
        <text x="273" y="134" class="language">Go</text>
        <text x="448" y="134" class="percent">8.33%</text>

        <circle cx="28" cy="156" r="5" fill="#dea584" />
        <text x="41" y="160" class="language">Rust</text>
        <text x="216" y="160" class="percent">7.96%</text>

        <circle cx="260" cy="156" r="5" fill="#b07219" />
        <text x="273" y="160" class="language">Java</text>
        <text x="448" y="160" class="percent">5.61%</text>

        <circle cx="28" cy="182" r="5" fill="#3572A5" />
        <text x="41" y="186" class="language">Python</text>
        <text x="216" y="186" class="percent">4.94%</text>

        <circle cx="260" cy="182" r="5" fill="#f34b7d" />
        <text x="273" y="186" class="language">C++</text>
        <text x="448" y="186" class="percent">4.38%</text>
</svg>
