<svg xmlns="http://www.w3.org/2000/svg" width="480" height="220" viewBox="0 0 480 220" role="img" aria-labelledby="title desc">
  <title id="title">Language Distribution</title>
  <desc id="desc">Language distribution across bugstan personal repositories and n2ns public organization repositories, excluding HTML and CSS.</desc>
  <style>
    svg { background: transparent; font-family: -apple-system, BlinkMacSystemFont, "Segoe UI", Helvetica, Arial, sans-serif; }
    .panel { fill: transparent; }
    .heading { fill: #fe428e; font-size: 24px; font-weight: 700; }
    .subtitle { fill: #777; font-size: 13px; }
    .language { fill: #777; font-size: 14px; font-weight: 600; }
    .percent { fill: #666; font-size: 13px; text-anchor: end; }
  </style>
  <rect x="0" y="0" width="480" height="220" class="panel" />
  <text x="20" y="34" class="heading">Most used languages</text>
  <text x="20" y="54" class="subtitle">39 source repositories · bugstan personal + n2ns public</text>
  <svg x="20" y="68" width="440" height="10" viewBox="0 0 440 10">
    <clipPath id="bar-clip"><rect x="0" y="0" width="440" height="10" rx="5" /></clipPath>
    <g clip-path="url(#bar-clip)">
      <rect x="0.00" y="0" width="164.79" height="10" fill="#4F5D95" />
<rect x="164.79" y="0" width="99.92" height="10" fill="#3178c6" />
<rect x="264.71" y="0" width="55.27" height="10" fill="#A97BFF" />
<rect x="319.98" y="0" width="32.63" height="10" fill="#00ADD8" />
<rect x="352.61" y="0" width="31.19" height="10" fill="#dea584" />
<rect x="383.80" y="0" width="21.98" height="10" fill="#b07219" />
<rect x="405.78" y="0" width="17.14" height="10" fill="#f34b7d" />
<rect x="422.93" y="0" width="17.07" height="10" fill="#3572A5" />
    </g>
  </svg>

        <circle cx="28" cy="104" r="5" fill="#4F5D95" />
        <text x="41" y="108" class="language">PHP</text>
        <text x="216" y="108" class="percent">37.45%</text>

        <circle cx="260" cy="104" r="5" fill="#3178c6" />
        <text x="273" y="108" class="language">TypeScript</text>
        <text x="448" y="108" class="percent">22.71%</text>

        <circle cx="28" cy="130" r="5" fill="#A97BFF" />
        <text x="41" y="134" class="language">Kotlin</text>
        <text x="216" y="134" class="percent">12.56%</text>

        <circle cx="260" cy="130" r="5" fill="#00ADD8" />
        <text x="273" y="134" class="language">Go</text>
        <text x="448" y="134" class="percent">7.42%</text>

        <circle cx="28" cy="156" r="5" fill="#dea584" />
        <text x="41" y="160" class="language">Rust</text>
        <text x="216" y="160" class="percent">7.09%</text>

        <circle cx="260" cy="156" r="5" fill="#b07219" />
        <text x="273" y="160" class="language">Java</text>
        <text x="448" y="160" class="percent">5.00%</text>

        <circle cx="28" cy="182" r="5" fill="#f34b7d" />
        <text x="41" y="186" class="language">C++</text>
        <text x="216" y="186" class="percent">3.90%</text>

        <circle cx="260" cy="182" r="5" fill="#3572A5" />
        <text x="273" y="186" class="language">Python</text>
        <text x="448" y="186" class="percent">3.88%</text>
</svg>
